
<svg width="192" height="192" xmlns="http://www.w3.org/2000/svg">
  <defs>
    <!-- Orange to Brown gradient -->
    <linearGradient id="brandGradient" x1="0%" y1="0%" x2="100%" y2="100%">
      <stop offset="0%" style="stop-color:#f97316;stop-opacity:1" />
      <stop offset="50%" style="stop-color:#ea580c;stop-opacity:1" />
      <stop offset="100%" style="stop-color:#92400e;stop-opacity:1" />
    </linearGradient>
    
    <!-- Inner glow -->
    <radialGradient id="innerGlow" cx="50%" cy="30%" r="70%">
      <stop offset="0%" style="stop-color:#fbbf24;stop-opacity:0.8" />
      <stop offset="100%" style="stop-color:#f97316;stop-opacity:0" />
    </radialGradient>
    
    <!-- Shadow filter -->
    <filter id="shadow" x="-20%" y="-20%" width="140%" height="140%">
      <feDropShadow dx="2" dy="4" stdDeviation="3" flood-color="rgba(0,0,0,0.3)"/>
    </filter>
  </defs>
  
  <!-- Background circle with gradient -->
  <circle cx="96" cy="96" r="92" fill="url(#brandGradient)" filter="url(#shadow)"/>
  
  <!-- Inner glow overlay -->
  <circle cx="96" cy="96" r="88" fill="url(#innerGlow)"/>
  
  <!-- Blog icon - stylized 'B' -->
  <g transform="translate(48, 38.400000000000006)">
    <!-- Letter B shape -->
    <path d="M 0 0 L 0 115.19999999999999 L 48 115.19999999999999 
             C 67.19999999999999 115.19999999999999 76.80000000000001 105.60000000000001 76.80000000000001 96
             C 76.80000000000001 86.4 67.19999999999999 76.80000000000001 48 76.80000000000001
             L 28.799999999999997 76.80000000000001
             L 28.799999999999997 38.400000000000006
             L 42.24 38.400000000000006
             C 61.44 38.400000000000006 71.03999999999999 28.799999999999997 71.03999999999999 19.200000000000003
             C 71.03999999999999 9.600000000000001 61.44 0 42.24 0
             Z
             M 15.36 15.36 L 42.24 15.36
             C 51.84 15.36 55.67999999999999 19.200000000000003 55.67999999999999 19.200000000000003
             C 55.67999999999999 19.200000000000003 51.84 23.04 42.24 23.04
             L 15.36 23.04
             Z
             M 15.36 53.760000000000005 L 48 53.760000000000005
             C 57.599999999999994 53.760000000000005 61.44 57.599999999999994 61.44 61.44
             C 61.44 65.28 57.599999999999994 69.12 48 69.12
             L 15.36 69.12
             Z" 
          fill="white" 
          opacity="0.95"/>
  </g>
  
  <!-- Decorative dots -->
  <circle cx="153.60000000000002" cy="57.599999999999994" r="5.76" fill="white" opacity="0.6"/>
  <circle cx="144" cy="144" r="4.800000000000001" fill="white" opacity="0.4"/>
  <circle cx="48" cy="153.60000000000002" r="3.84" fill="white" opacity="0.5"/>
</svg>