
<svg width="144" height="144" xmlns="http://www.w3.org/2000/svg">
  <defs>
    <!-- Orange to Brown gradient -->
    <linearGradient id="brandGradient" x1="0%" y1="0%" x2="100%" y2="100%">
      <stop offset="0%" style="stop-color:#f97316;stop-opacity:1" />
      <stop offset="50%" style="stop-color:#ea580c;stop-opacity:1" />
      <stop offset="100%" style="stop-color:#92400e;stop-opacity:1" />
    </linearGradient>
    
    <!-- Inner glow -->
    <radialGradient id="innerGlow" cx="50%" cy="30%" r="70%">
      <stop offset="0%" style="stop-color:#fbbf24;stop-opacity:0.8" />
      <stop offset="100%" style="stop-color:#f97316;stop-opacity:0" />
    </radialGradient>
    
    <!-- Shadow filter -->
    <filter id="shadow" x="-20%" y="-20%" width="140%" height="140%">
      <feDropShadow dx="2" dy="4" stdDeviation="3" flood-color="rgba(0,0,0,0.3)"/>
    </filter>
  </defs>
  
  <!-- Background circle with gradient -->
  <circle cx="72" cy="72" r="68" fill="url(#brandGradient)" filter="url(#shadow)"/>
  
  <!-- Inner glow overlay -->
  <circle cx="72" cy="72" r="64" fill="url(#innerGlow)"/>
  
  <!-- Blog icon - stylized 'B' -->
  <g transform="translate(36, 28.8)">
    <!-- Letter B shape -->
    <path d="M 0 0 L 0 86.39999999999999 L 36 86.39999999999999 
             C 50.4 86.39999999999999 57.6 79.2 57.6 72
             C 57.6 64.8 50.4 57.6 36 57.6
             L 21.599999999999998 57.6
             L 21.599999999999998 28.8
             L 31.68 28.8
             C 46.08 28.8 53.28 21.599999999999998 53.28 14.4
             C 53.28 7.2 46.08 0 31.68 0
             Z
             M 11.52 11.52 L 31.68 11.52
             C 38.88 11.52 41.76 14.4 41.76 14.4
             C 41.76 14.4 38.88 17.28 31.68 17.28
             L 11.52 17.28
             Z
             M 11.52 40.32000000000001 L 36 40.32000000000001
             C 43.199999999999996 40.32000000000001 46.08 43.199999999999996 46.08 46.08
             C 46.08 48.96 43.199999999999996 51.839999999999996 36 51.839999999999996
             L 11.52 51.839999999999996
             Z" 
          fill="white" 
          opacity="0.95"/>
  </g>
  
  <!-- Decorative dots -->
  <circle cx="115.2" cy="43.199999999999996" r="4.32" fill="white" opacity="0.6"/>
  <circle cx="108" cy="108" r="3.6" fill="white" opacity="0.4"/>
  <circle cx="36" cy="115.2" r="2.88" fill="white" opacity="0.5"/>
</svg>