
<svg width="512" height="512" xmlns="http://www.w3.org/2000/svg">
  <defs>
    <!-- Orange to Brown gradient -->
    <linearGradient id="brandGradient" x1="0%" y1="0%" x2="100%" y2="100%">
      <stop offset="0%" style="stop-color:#f97316;stop-opacity:1" />
      <stop offset="50%" style="stop-color:#ea580c;stop-opacity:1" />
      <stop offset="100%" style="stop-color:#92400e;stop-opacity:1" />
    </linearGradient>
    
    <!-- Inner glow -->
    <radialGradient id="innerGlow" cx="50%" cy="30%" r="70%">
      <stop offset="0%" style="stop-color:#fbbf24;stop-opacity:0.8" />
      <stop offset="100%" style="stop-color:#f97316;stop-opacity:0" />
    </radialGradient>
    
    <!-- Shadow filter -->
    <filter id="shadow" x="-20%" y="-20%" width="140%" height="140%">
      <feDropShadow dx="2" dy="4" stdDeviation="3" flood-color="rgba(0,0,0,0.3)"/>
    </filter>
  </defs>
  
  <!-- Background circle with gradient -->
  <circle cx="256" cy="256" r="252" fill="url(#brandGradient)" filter="url(#shadow)"/>
  
  <!-- Inner glow overlay -->
  <circle cx="256" cy="256" r="248" fill="url(#innerGlow)"/>
  
  <!-- Blog icon - stylized 'B' -->
  <g transform="translate(128, 102.4)">
    <!-- Letter B shape -->
    <path d="M 0 0 L 0 307.2 L 128 307.2 
             C 179.2 307.2 204.8 281.6 204.8 256
             C 204.8 230.4 179.2 204.8 128 204.8
             L 76.8 204.8
             L 76.8 102.4
             L 112.64 102.4
             C 163.84 102.4 189.44 76.8 189.44 51.2
             C 189.44 25.6 163.84 0 112.64 0
             Z
             M 40.96 40.96 L 112.64 40.96
             C 138.24 40.96 148.48 51.2 148.48 51.2
             C 148.48 51.2 138.24 61.44 112.64 61.44
             L 40.96 61.44
             Z
             M 40.96 143.36 L 128 143.36
             C 153.6 143.36 163.84 153.6 163.84 163.84
             C 163.84 174.08 153.6 184.32 128 184.32
             L 40.96 184.32
             Z" 
          fill="white" 
          opacity="0.95"/>
  </g>
  
  <!-- Decorative dots -->
  <circle cx="409.6" cy="153.6" r="15.36" fill="white" opacity="0.6"/>
  <circle cx="384" cy="384" r="12.8" fill="white" opacity="0.4"/>
  <circle cx="128" cy="409.6" r="10.24" fill="white" opacity="0.5"/>
</svg>