
<svg width="96" height="96" xmlns="http://www.w3.org/2000/svg">
  <defs>
    <!-- Orange to Brown gradient -->
    <linearGradient id="brandGradient" x1="0%" y1="0%" x2="100%" y2="100%">
      <stop offset="0%" style="stop-color:#f97316;stop-opacity:1" />
      <stop offset="50%" style="stop-color:#ea580c;stop-opacity:1" />
      <stop offset="100%" style="stop-color:#92400e;stop-opacity:1" />
    </linearGradient>
    
    <!-- Inner glow -->
    <radialGradient id="innerGlow" cx="50%" cy="30%" r="70%">
      <stop offset="0%" style="stop-color:#fbbf24;stop-opacity:0.8" />
      <stop offset="100%" style="stop-color:#f97316;stop-opacity:0" />
    </radialGradient>
    
    <!-- Shadow filter -->
    <filter id="shadow" x="-20%" y="-20%" width="140%" height="140%">
      <feDropShadow dx="2" dy="4" stdDeviation="3" flood-color="rgba(0,0,0,0.3)"/>
    </filter>
  </defs>
  
  <!-- Background circle with gradient -->
  <circle cx="48" cy="48" r="44" fill="url(#brandGradient)" filter="url(#shadow)"/>
  
  <!-- Inner glow overlay -->
  <circle cx="48" cy="48" r="40" fill="url(#innerGlow)"/>
  
  <!-- Blog icon - stylized 'B' -->
  <g transform="translate(24, 19.200000000000003)">
    <!-- Letter B shape -->
    <path d="M 0 0 L 0 57.599999999999994 L 24 57.599999999999994 
             C 33.599999999999994 57.599999999999994 38.400000000000006 52.800000000000004 38.400000000000006 48
             C 38.400000000000006 43.2 33.599999999999994 38.400000000000006 24 38.400000000000006
             L 14.399999999999999 38.400000000000006
             L 14.399999999999999 19.200000000000003
             L 21.12 19.200000000000003
             C 30.72 19.200000000000003 35.519999999999996 14.399999999999999 35.519999999999996 9.600000000000001
             C 35.519999999999996 4.800000000000001 30.72 0 21.12 0
             Z
             M 7.68 7.68 L 21.12 7.68
             C 25.92 7.68 27.839999999999996 9.600000000000001 27.839999999999996 9.600000000000001
             C 27.839999999999996 9.600000000000001 25.92 11.52 21.12 11.52
             L 7.68 11.52
             Z
             M 7.68 26.880000000000003 L 24 26.880000000000003
             C 28.799999999999997 26.880000000000003 30.72 28.799999999999997 30.72 30.72
             C 30.72 32.64 28.799999999999997 34.56 24 34.56
             L 7.68 34.56
             Z" 
          fill="white" 
          opacity="0.95"/>
  </g>
  
  <!-- Decorative dots -->
  <circle cx="76.80000000000001" cy="28.799999999999997" r="2.88" fill="white" opacity="0.6"/>
  <circle cx="72" cy="72" r="2.4000000000000004" fill="white" opacity="0.4"/>
  <circle cx="24" cy="76.80000000000001" r="1.92" fill="white" opacity="0.5"/>
</svg>