
<svg width="72" height="72" xmlns="http://www.w3.org/2000/svg">
  <defs>
    <!-- Orange to Brown gradient -->
    <linearGradient id="brandGradient" x1="0%" y1="0%" x2="100%" y2="100%">
      <stop offset="0%" style="stop-color:#f97316;stop-opacity:1" />
      <stop offset="50%" style="stop-color:#ea580c;stop-opacity:1" />
      <stop offset="100%" style="stop-color:#92400e;stop-opacity:1" />
    </linearGradient>
    
    <!-- Inner glow -->
    <radialGradient id="innerGlow" cx="50%" cy="30%" r="70%">
      <stop offset="0%" style="stop-color:#fbbf24;stop-opacity:0.8" />
      <stop offset="100%" style="stop-color:#f97316;stop-opacity:0" />
    </radialGradient>
    
    <!-- Shadow filter -->
    <filter id="shadow" x="-20%" y="-20%" width="140%" height="140%">
      <feDropShadow dx="2" dy="4" stdDeviation="3" flood-color="rgba(0,0,0,0.3)"/>
    </filter>
  </defs>
  
  <!-- Background circle with gradient -->
  <circle cx="36" cy="36" r="32" fill="url(#brandGradient)" filter="url(#shadow)"/>
  
  <!-- Inner glow overlay -->
  <circle cx="36" cy="36" r="28" fill="url(#innerGlow)"/>
  
  <!-- Blog icon - stylized 'B' -->
  <g transform="translate(18, 14.4)">
    <!-- Letter B shape -->
    <path d="M 0 0 L 0 43.199999999999996 L 18 43.199999999999996 
             C 25.2 43.199999999999996 28.8 39.6 28.8 36
             C 28.8 32.4 25.2 28.8 18 28.8
             L 10.799999999999999 28.8
             L 10.799999999999999 14.4
             L 15.84 14.4
             C 23.04 14.4 26.64 10.799999999999999 26.64 7.2
             C 26.64 3.6 23.04 0 15.84 0
             Z
             M 5.76 5.76 L 15.84 5.76
             C 19.44 5.76 20.88 7.2 20.88 7.2
             C 20.88 7.2 19.44 8.64 15.84 8.64
             L 5.76 8.64
             Z
             M 5.76 20.160000000000004 L 18 20.160000000000004
             C 21.599999999999998 20.160000000000004 23.04 21.599999999999998 23.04 23.04
             C 23.04 24.48 21.599999999999998 25.919999999999998 18 25.919999999999998
             L 5.76 25.919999999999998
             Z" 
          fill="white" 
          opacity="0.95"/>
  </g>
  
  <!-- Decorative dots -->
  <circle cx="57.6" cy="21.599999999999998" r="2.16" fill="white" opacity="0.6"/>
  <circle cx="54" cy="54" r="1.8" fill="white" opacity="0.4"/>
  <circle cx="18" cy="57.6" r="1.44" fill="white" opacity="0.5"/>
</svg>