
<svg width="152" height="152" xmlns="http://www.w3.org/2000/svg">
  <defs>
    <!-- Orange to Brown gradient -->
    <linearGradient id="brandGradient" x1="0%" y1="0%" x2="100%" y2="100%">
      <stop offset="0%" style="stop-color:#f97316;stop-opacity:1" />
      <stop offset="50%" style="stop-color:#ea580c;stop-opacity:1" />
      <stop offset="100%" style="stop-color:#92400e;stop-opacity:1" />
    </linearGradient>
    
    <!-- Inner glow -->
    <radialGradient id="innerGlow" cx="50%" cy="30%" r="70%">
      <stop offset="0%" style="stop-color:#fbbf24;stop-opacity:0.8" />
      <stop offset="100%" style="stop-color:#f97316;stop-opacity:0" />
    </radialGradient>
    
    <!-- Shadow filter -->
    <filter id="shadow" x="-20%" y="-20%" width="140%" height="140%">
      <feDropShadow dx="2" dy="4" stdDeviation="3" flood-color="rgba(0,0,0,0.3)"/>
    </filter>
  </defs>
  
  <!-- Background circle with gradient -->
  <circle cx="76" cy="76" r="72" fill="url(#brandGradient)" filter="url(#shadow)"/>
  
  <!-- Inner glow overlay -->
  <circle cx="76" cy="76" r="68" fill="url(#innerGlow)"/>
  
  <!-- Blog icon - stylized 'B' -->
  <g transform="translate(38, 30.400000000000002)">
    <!-- Letter B shape -->
    <path d="M 0 0 L 0 91.2 L 38 91.2 
             C 53.199999999999996 91.2 60.800000000000004 83.60000000000001 60.800000000000004 76
             C 60.800000000000004 68.4 53.199999999999996 60.800000000000004 38 60.800000000000004
             L 22.8 60.800000000000004
             L 22.8 30.400000000000002
             L 33.44 30.400000000000002
             C 48.64 30.400000000000002 56.24 22.8 56.24 15.200000000000001
             C 56.24 7.6000000000000005 48.64 0 33.44 0
             Z
             M 12.16 12.16 L 33.44 12.16
             C 41.040000000000006 12.16 44.08 15.200000000000001 44.08 15.200000000000001
             C 44.08 15.200000000000001 41.040000000000006 18.24 33.44 18.24
             L 12.16 18.24
             Z
             M 12.16 42.56 L 38 42.56
             C 45.6 42.56 48.64 45.6 48.64 48.64
             C 48.64 51.68000000000001 45.6 54.72 38 54.72
             L 12.16 54.72
             Z" 
          fill="white" 
          opacity="0.95"/>
  </g>
  
  <!-- Decorative dots -->
  <circle cx="121.60000000000001" cy="45.6" r="4.56" fill="white" opacity="0.6"/>
  <circle cx="114" cy="114" r="3.8000000000000003" fill="white" opacity="0.4"/>
  <circle cx="38" cy="121.60000000000001" r="3.04" fill="white" opacity="0.5"/>
</svg>