
<svg width="384" height="384" xmlns="http://www.w3.org/2000/svg">
  <defs>
    <!-- Orange to Brown gradient -->
    <linearGradient id="brandGradient" x1="0%" y1="0%" x2="100%" y2="100%">
      <stop offset="0%" style="stop-color:#f97316;stop-opacity:1" />
      <stop offset="50%" style="stop-color:#ea580c;stop-opacity:1" />
      <stop offset="100%" style="stop-color:#92400e;stop-opacity:1" />
    </linearGradient>
    
    <!-- Inner glow -->
    <radialGradient id="innerGlow" cx="50%" cy="30%" r="70%">
      <stop offset="0%" style="stop-color:#fbbf24;stop-opacity:0.8" />
      <stop offset="100%" style="stop-color:#f97316;stop-opacity:0" />
    </radialGradient>
    
    <!-- Shadow filter -->
    <filter id="shadow" x="-20%" y="-20%" width="140%" height="140%">
      <feDropShadow dx="2" dy="4" stdDeviation="3" flood-color="rgba(0,0,0,0.3)"/>
    </filter>
  </defs>
  
  <!-- Background circle with gradient -->
  <circle cx="192" cy="192" r="188" fill="url(#brandGradient)" filter="url(#shadow)"/>
  
  <!-- Inner glow overlay -->
  <circle cx="192" cy="192" r="184" fill="url(#innerGlow)"/>
  
  <!-- Blog icon - stylized 'B' -->
  <g transform="translate(96, 76.80000000000001)">
    <!-- Letter B shape -->
    <path d="M 0 0 L 0 230.39999999999998 L 96 230.39999999999998 
             C 134.39999999999998 230.39999999999998 153.60000000000002 211.20000000000002 153.60000000000002 192
             C 153.60000000000002 172.8 134.39999999999998 153.60000000000002 96 153.60000000000002
             L 57.599999999999994 153.60000000000002
             L 57.599999999999994 76.80000000000001
             L 84.48 76.80000000000001
             C 122.88 76.80000000000001 142.07999999999998 57.599999999999994 142.07999999999998 38.400000000000006
             C 142.07999999999998 19.200000000000003 122.88 0 84.48 0
             Z
             M 30.72 30.72 L 84.48 30.72
             C 103.68 30.72 111.35999999999999 38.400000000000006 111.35999999999999 38.400000000000006
             C 111.35999999999999 38.400000000000006 103.68 46.08 84.48 46.08
             L 30.72 46.08
             Z
             M 30.72 107.52000000000001 L 96 107.52000000000001
             C 115.19999999999999 107.52000000000001 122.88 115.19999999999999 122.88 122.88
             C 122.88 130.56 115.19999999999999 138.24 96 138.24
             L 30.72 138.24
             Z" 
          fill="white" 
          opacity="0.95"/>
  </g>
  
  <!-- Decorative dots -->
  <circle cx="307.20000000000005" cy="115.19999999999999" r="11.52" fill="white" opacity="0.6"/>
  <circle cx="288" cy="288" r="9.600000000000001" fill="white" opacity="0.4"/>
  <circle cx="96" cy="307.20000000000005" r="7.68" fill="white" opacity="0.5"/>
</svg>