
<svg width="128" height="128" xmlns="http://www.w3.org/2000/svg">
  <defs>
    <!-- Orange to Brown gradient -->
    <linearGradient id="brandGradient" x1="0%" y1="0%" x2="100%" y2="100%">
      <stop offset="0%" style="stop-color:#f97316;stop-opacity:1" />
      <stop offset="50%" style="stop-color:#ea580c;stop-opacity:1" />
      <stop offset="100%" style="stop-color:#92400e;stop-opacity:1" />
    </linearGradient>
    
    <!-- Inner glow -->
    <radialGradient id="innerGlow" cx="50%" cy="30%" r="70%">
      <stop offset="0%" style="stop-color:#fbbf24;stop-opacity:0.8" />
      <stop offset="100%" style="stop-color:#f97316;stop-opacity:0" />
    </radialGradient>
    
    <!-- Shadow filter -->
    <filter id="shadow" x="-20%" y="-20%" width="140%" height="140%">
      <feDropShadow dx="2" dy="4" stdDeviation="3" flood-color="rgba(0,0,0,0.3)"/>
    </filter>
  </defs>
  
  <!-- Background circle with gradient -->
  <circle cx="64" cy="64" r="60" fill="url(#brandGradient)" filter="url(#shadow)"/>
  
  <!-- Inner glow overlay -->
  <circle cx="64" cy="64" r="56" fill="url(#innerGlow)"/>
  
  <!-- Blog icon - stylized 'B' -->
  <g transform="translate(32, 25.6)">
    <!-- Letter B shape -->
    <path d="M 0 0 L 0 76.8 L 32 76.8 
             C 44.8 76.8 51.2 70.4 51.2 64
             C 51.2 57.6 44.8 51.2 32 51.2
             L 19.2 51.2
             L 19.2 25.6
             L 28.16 25.6
             C 40.96 25.6 47.36 19.2 47.36 12.8
             C 47.36 6.4 40.96 0 28.16 0
             Z
             M 10.24 10.24 L 28.16 10.24
             C 34.56 10.24 37.12 12.8 37.12 12.8
             C 37.12 12.8 34.56 15.36 28.16 15.36
             L 10.24 15.36
             Z
             M 10.24 35.84 L 32 35.84
             C 38.4 35.84 40.96 38.4 40.96 40.96
             C 40.96 43.52 38.4 46.08 32 46.08
             L 10.24 46.08
             Z" 
          fill="white" 
          opacity="0.95"/>
  </g>
  
  <!-- Decorative dots -->
  <circle cx="102.4" cy="38.4" r="3.84" fill="white" opacity="0.6"/>
  <circle cx="96" cy="96" r="3.2" fill="white" opacity="0.4"/>
  <circle cx="32" cy="102.4" r="2.56" fill="white" opacity="0.5"/>
</svg>