
<svg width="32" height="32" xmlns="http://www.w3.org/2000/svg">
  <defs>
    <!-- Orange to Brown gradient -->
    <linearGradient id="brandGradient" x1="0%" y1="0%" x2="100%" y2="100%">
      <stop offset="0%" style="stop-color:#f97316;stop-opacity:1" />
      <stop offset="50%" style="stop-color:#ea580c;stop-opacity:1" />
      <stop offset="100%" style="stop-color:#92400e;stop-opacity:1" />
    </linearGradient>
    
    <!-- Inner glow -->
    <radialGradient id="innerGlow" cx="50%" cy="30%" r="70%">
      <stop offset="0%" style="stop-color:#fbbf24;stop-opacity:0.8" />
      <stop offset="100%" style="stop-color:#f97316;stop-opacity:0" />
    </radialGradient>
    
    <!-- Shadow filter -->
    <filter id="shadow" x="-20%" y="-20%" width="140%" height="140%">
      <feDropShadow dx="2" dy="4" stdDeviation="3" flood-color="rgba(0,0,0,0.3)"/>
    </filter>
  </defs>
  
  <!-- Background circle with gradient -->
  <circle cx="16" cy="16" r="12" fill="url(#brandGradient)" filter="url(#shadow)"/>
  
  <!-- Inner glow overlay -->
  <circle cx="16" cy="16" r="8" fill="url(#innerGlow)"/>
  
  <!-- Blog icon - stylized 'B' -->
  <g transform="translate(8, 6.4)">
    <!-- Letter B shape -->
    <path d="M 0 0 L 0 19.2 L 8 19.2 
             C 11.2 19.2 12.8 17.6 12.8 16
             C 12.8 14.4 11.2 12.8 8 12.8
             L 4.8 12.8
             L 4.8 6.4
             L 7.04 6.4
             C 10.24 6.4 11.84 4.8 11.84 3.2
             C 11.84 1.6 10.24 0 7.04 0
             Z
             M 2.56 2.56 L 7.04 2.56
             C 8.64 2.56 9.28 3.2 9.28 3.2
             C 9.28 3.2 8.64 3.84 7.04 3.84
             L 2.56 3.84
             Z
             M 2.56 8.96 L 8 8.96
             C 9.6 8.96 10.24 9.6 10.24 10.24
             C 10.24 10.88 9.6 11.52 8 11.52
             L 2.56 11.52
             Z" 
          fill="white" 
          opacity="0.95"/>
  </g>
  
  <!-- Decorative dots -->
  <circle cx="25.6" cy="9.6" r="0.96" fill="white" opacity="0.6"/>
  <circle cx="24" cy="24" r="0.8" fill="white" opacity="0.4"/>
  <circle cx="8" cy="25.6" r="0.64" fill="white" opacity="0.5"/>
</svg>