<svg xmlns="http://www.w3.org/2000/svg" width="1600" height="900" aria-labelledby="title desc"><desc id="desc">A summary graphic showing release date, security focus, and milestone stats for Go 1.26.2.</desc><defs><linearGradient id="bg" x1="0" x2="1" y1="0" y2="1"><stop offset="0%" stop-color="#fff7e9"/><stop offset="100%" stop-color="#f8f1df"/></linearGradient><linearGradient id="card" x1="0" x2="0" y1="0" y2="1"><stop offset="0%" stop-color="#fff"/><stop offset="100%" stop-color="#fef8ed"/></linearGradient><style>.k{font:700 40px&quot;Avenir Next&quot;,&quot;Helvetica Neue&quot;,Arial,sans-serif;fill:#162033}.v{font:500 23px&quot;Avenir Next&quot;,&quot;Helvetica Neue&quot;,Arial,sans-serif;fill:#44516a}</style></defs><path fill="url(#bg)" d="M0 0h1600v900H0z"/><circle cx="1440" cy="140" r="230" fill="#f7d9b8" opacity=".45"/><circle cx="220" cy="760" r="220" fill="#f1cfaa" opacity=".32"/><rect width="1460" height="760" x="70" y="70" fill="url(#card)" stroke="#e7d4b8" rx="30"/><text x="130" y="180" style="font:700 58px&quot;Avenir Next&quot;,&quot;Helvetica Neue&quot;,Arial,sans-serif;fill:#1f2a37">Go 1.26.2</text><text x="130" y="228" style="font:500 26px&quot;Avenir Next&quot;,&quot;Helvetica Neue&quot;,Arial,sans-serif;fill:#415067">Security patch and regression stabilization release</text><rect width="420" height="190" x="120" y="290" fill="#fff" stroke="#e7d8c3" rx="20"/><text x="150" y="350" class="k">Released</text><text x="150" y="402" class="v">2026-04-07</text><rect width="420" height="190" x="590" y="290" fill="#fff" stroke="#e7d8c3" rx="20"/><text x="620" y="350" class="k">Milestone</text><text x="620" y="402" class="v">31 closed, 0 open</text><rect width="420" height="190" x="1060" y="290" fill="#fff" stroke="#e7d8c3" rx="20"/><text x="1090" y="350" class="k">CVE-linked items</text><text x="1090" y="402" class="v">10 tickets in milestone</text><rect width="1360" height="230" x="120" y="530" fill="#fff" stroke="#e7d8c3" rx="20"/><text x="150" y="590" class="k">Security focus areas called out by official release notes</text><text x="150" y="640" class="v">go command, compiler, archive/tar, crypto/tls, crypto/x509, html/template, os</text><text x="150" y="690" class="v">Bug-fix areas: go command, go fix, compiler, linker, runtime, net, net/http, net/url</text><text x="130" y="805" style="font:500 18px&quot;Avenir Next&quot;,&quot;Helvetica Neue&quot;,Arial,sans-serif;fill:#5d6a84">Source: go.dev/doc/devel/release#go1.26.2 and github.com/golang/go milestone Go1.26.2</text></svg>