<svg xmlns="http://www.w3.org/2000/svg" width="1600" height="900" aria-labelledby="title desc"><desc id="desc">Bar-chart style visual of issue-label counts observed in Go1.26.2 milestone.</desc><defs><linearGradient id="bg2" x1="0" x2="1" y1="0" y2="1"><stop offset="0%" stop-color="#fffaf0"/><stop offset="100%" stop-color="#f9f0df"/></linearGradient><style>.l{font:600 28px&quot;Avenir Next&quot;,&quot;Helvetica Neue&quot;,Arial,sans-serif;fill:#233148}.n{font:700 30px&quot;Avenir Next&quot;,&quot;Helvetica Neue&quot;,Arial,sans-serif;fill:#1b263a}</style></defs><path fill="url(#bg2)" d="M0 0h1600v900H0z"/><rect width="1460" height="760" x="70" y="70" fill="#fff" stroke="#e6d9c4" rx="28"/><text x="130" y="170" style="font:700 54px&quot;Avenir Next&quot;,&quot;Helvetica Neue&quot;,Arial,sans-serif;fill:#1f2a37">Go1.26.2 Milestone Snapshot</text><text x="130" y="214" style="font:500 24px&quot;Avenir Next&quot;,&quot;Helvetica Neue&quot;,Arial,sans-serif;fill:#49556f">Closed issues: 31 | Open issues: 0 | Data source: GitHub milestone API</text><path stroke="#e8dece" stroke-width="2" d="M350 300h1060M350 390h1060M350 480h1060M350 570h1060M350 660h1060"/><text x="130" y="315" class="l">CVE-related titles</text><rect width="820" height="48" x="350" y="278" fill="#ffd8b1" stroke="#e5b482" rx="12"/><text x="1190" y="312" class="n">10</text><text x="130" y="405" class="l">compiler/runtime label</text><rect width="820" height="48" x="350" y="368" fill="#c6ddff" stroke="#8fb0dc" rx="12"/><text x="1190" y="402" class="n">10</text><text x="130" y="495" class="l">Documentation label</text><rect width="330" height="48" x="350" y="458" fill="#d7f5d2" stroke="#98c693" rx="12"/><text x="700" y="492" class="n">4</text><text x="130" y="585" class="l">Testing label</text><rect width="170" height="48" x="350" y="548" fill="#fff0bf" stroke="#d5bc74" rx="12"/><text x="540" y="582" class="n">2</text><text x="130" y="675" class="l">GoCommand label</text><rect width="90" height="48" x="350" y="638" fill="#ffd2de" stroke="#d89aab" rx="12"/><text x="460" y="672" class="n">1</text><text x="130" y="790" style="font:500 17px&quot;Avenir Next&quot;,&quot;Helvetica Neue&quot;,Arial,sans-serif;fill:#5b6985">Note: categories overlap. Counts are per-label or title pattern and are not additive.</text></svg>